<?xml version="1.0" encoding="UTF-8" standalone="no"?>
<!-- Created with Inkscape (http://www.inkscape.org/) -->

<svg
   xmlns:dc="http://purl.org/dc/elements/1.1/"
   xmlns:cc="http://creativecommons.org/ns#"
   xmlns:rdf="http://www.w3.org/1999/02/22-rdf-syntax-ns#"
   xmlns:svg="http://www.w3.org/2000/svg"
   xmlns="http://www.w3.org/2000/svg"
   xmlns:sodipodi="http://sodipodi.sourceforge.net/DTD/sodipodi-0.dtd"
   xmlns:inkscape="http://www.inkscape.org/namespaces/inkscape"
   width="100mm"
   height="100mm"
   viewBox="0 0 100 100"
   version="1.1"
   id="svg8"
   inkscape:version="0.92.4 (5da689c313, 2019-01-14)"
   sodipodi:docname="sig.svg">
  <defs
     id="defs2" />
  <sodipodi:namedview
     id="base"
     pagecolor="#ffffff"
     bordercolor="#666666"
     borderopacity="1.0"
     inkscape:pageopacity="0.0"
     inkscape:pageshadow="2"
     inkscape:zoom="1.979899"
     inkscape:cx="68.854946"
     inkscape:cy="173.283"
     inkscape:document-units="mm"
     inkscape:current-layer="layer1"
     showgrid="false"
     inkscape:window-width="1920"
     inkscape:window-height="1027"
     inkscape:window-x="1592"
     inkscape:window-y="-8"
     inkscape:window-maximized="1" />
  <metadata
     id="metadata5">
    <rdf:RDF>
      <cc:Work
         rdf:about="">
        <dc:format>image/svg+xml</dc:format>
        <dc:type
           rdf:resource="http://purl.org/dc/dcmitype/StillImage" />
        <dc:title></dc:title>
      </cc:Work>
    </rdf:RDF>
  </metadata>
  <g
     inkscape:label="Layer 1"
     inkscape:groupmode="layer"
     id="layer1"
     transform="translate(0,-197)">
    <path
       style="opacity:1;fill:#000000;fill-opacity:1;fill-rule:nonzero;stroke:#ff00ff;stroke-width:0;stroke-miterlimit:3.70000005;stroke-dasharray:none;stroke-opacity:1"
       id="path4527"
       d="m 38.291,220.12398 c 1.068239,6.4792 1.948251,12.99251 2.986341,19.47863 1.620784,9.77487 3.480886,19.50229 5.164477,29.26491 0.152066,0.86323 0.30479,1.72637 0.456204,2.58973 0.242813,1.38468 1.011804,3.87296 -2.004536,1.30385 -0.540972,-0.4608 -0.590282,-1.33198 -0.927698,-1.97439 -0.554672,-1.05608 -1.164568,-2.07855 -1.746849,-3.11782 -5.802455,-9.04029 -13.83384,-16.1016 -22.617904,-21.72143 -1.641018,-1.04989 -3.350088,-1.97568 -5.02513,-2.96349 -3.825454,-1.94373 -4.139339,-2.21219 -7.8354752,-3.72177 -1.4932159,-0.60982 -3.0510865,-1.03572 -4.5331824,-1.67523 -1.1307755,-0.48792 -0.9769079,-0.24636 -0.7957756,-1.16483 0.4564232,-0.25408 0.8918123,-0.55639 1.3692648,-0.7629 1.4763279,-0.63865 5.2644273,-1.83745 6.4977539,-2.22709 5.3111025,-1.67786 10.6582695,-3.22167 16.0030125,-4.7735 7.059254,-2.03894 14.134074,-4.02237 21.144686,-6.2439 0.539169,-0.18168 1.113053,-0.35759 1.643347,-0.58366 0.08965,-0.0384 0.175724,-0.0855 0.260787,-0.13397 0.01899,-0.0102 0.05268,-0.0657 0.04953,-0.0433 -0.07952,0.56917 -2.107815,0.0531 1.327158,0.17577 -0.530839,0.0729 -0.405205,0.15274 -0.434025,0.80783 0.191206,7.08094 1.12209,14.10866 2.137774,21.10024 0.794596,4.79968 1.720911,9.57988 2.893779,14.29337 0.369517,1.48498 1.145659,4.45879 1.794075,5.99574 0.216668,0.51358 0.546322,0.96487 0.819483,1.44727 0.259158,0.0544 0.899566,0.41091 0.777504,0.16281 -0.236117,-0.47983 -1.135069,-0.47761 -1.196702,-1.01474 -0.09808,-0.85467 0.600211,-1.60541 0.800322,-2.43991 0.302468,-1.26131 0.523302,-2.54502 0.703772,-3.83225 0.514072,-3.66681 0.696932,-7.24296 0.959401,-10.94126 0.337636,-5.76552 0.46429,-11.54111 0.774589,-17.30808 0.154112,-2.86425 0.293966,-5.72988 0.762151,-8.55743 2.615625,-2.30048 2.807102,2.7151 2.903604,3.37477 0.164042,1.12123 0.309923,2.2454 0.474972,3.36646 0.588099,3.99481 0.722633,4.70669 1.396107,8.8202 0.831392,4.50384 1.598238,9.04459 2.851793,13.44603 0.408911,1.43579 1.183301,4.11586 2.238399,5.38363 0.327439,0.39342 0.852042,0.53492 1.278062,0.80237 -0.218324,-0.21467 -0.771269,-0.3537 -0.655004,-0.64422 0.346595,-0.866 1.241282,-1.35523 1.760626,-2.11833 0.763682,-1.12214 1.422584,-2.32161 2.076096,-3.51919 1.691046,-3.09884 3.154874,-6.33214 4.832677,-9.43906 0.83917,-1.55398 1.745535,-3.0662 2.618296,-4.59925 1.219943,-1.72848 2.929514,-4.72513 4.977502,-5.80733 1.834107,-0.96915 4.951061,0.68129 5.957514,1.83409 0.991111,1.13516 2.329387,8.44457 2.506705,9.27339 1.071856,5.61099 2.02777,11.24559 2.998407,16.87683 0,0 -0.09507,0.004 -0.09507,0.004 v 0 c -0.729107,-1.67436 -1.597907,-3.28816 -2.187319,-5.02306 -1.156812,-3.40501 -1.975981,-8.288 -2.657057,-11.80911 -0.411721,-1.76205 -0.725919,-3.55293 -1.235155,-5.28619 -0.388852,-1.32349 -1.183159,-2.50686 -1.452948,-3.86316 -0.124806,-0.62737 0.762348,-1.47254 0.307397,-1.89573 -0.569443,-0.52971 -1.573911,-0.2425 -2.273197,0.0672 -2.227712,0.98681 -3.928033,3.92043 -5.258447,5.72211 -0.890551,1.52915 -1.826781,3.02953 -2.67166,4.58745 -1.755771,3.23761 -3.038132,6.17304 -4.68648,9.45361 -0.120905,0.24069 -2.589373,5.31959 -3.451415,5.80152 -1.046915,0.58536 -2.336876,0.40422 -3.505321,0.6063 -0.404768,-0.3054 -0.909251,-0.50039 -1.214324,-0.91572 -0.929571,-1.26553 -1.697244,-4.09921 -2.056224,-5.44192 -1.18189,-4.4207 -1.926408,-8.95719 -2.739128,-13.46377 -1.250838,-7.6239 -0.298834,-1.70735 -1.39768,-8.82297 -0.173097,-1.12085 -0.336882,-2.2435 -0.528839,-3.36094 -0.13422,-0.78136 -0.690011,-1.58222 -0.449554,-2.3345 0.319368,-0.99904 2.432495,-1.18283 1.153984,-1.03347 -0.123371,0.50276 -0.285217,0.99668 -0.370104,1.5083 -0.327939,1.97701 -0.563676,5.17092 -0.698752,7.01749 -0.421617,5.76366 -0.691433,11.5385 -1.031571,17.30773 -0.229059,3.84494 -0.380655,7.15176 -0.769725,10.95708 -0.131915,1.29011 -0.276947,2.58047 -0.493281,3.85771 -0.143812,0.84916 -0.02787,1.8837 -0.585656,2.51275 -1.630277,1.83911 -2.143853,1.39568 -3.418197,0.8355 -0.246617,-0.49601 -0.542781,-0.96771 -0.739811,-1.48793 -0.589118,-1.55551 -1.312166,-4.53318 -1.659919,-6.01831 -1.106782,-4.7266 -2.003704,-9.50632 -2.74944,-14.311 -1.020757,-7.00758 -2.009466,-14.04335 -2.338975,-21.13252 0.0168,-0.90583 -0.03357,-0.92132 0.663063,-1.04546 0.600324,-0.002 1.203088,-0.0628 1.800978,-0.005 0.174826,0.0154 0.03922,0.27624 0.0024,0.30509 -0.560932,0.44038 -1.397769,0.4038 -1.990384,0.73677 -7.135673,2.15624 -14.315469,4.1429 -21.476771,6.20058 -5.330295,1.54671 -10.665142,3.07973 -15.955432,4.77565 -1.8485485,0.5926 -4.4422187,1.43217 -6.3253491,2.22585 -0.4397755,0.18555 -0.8554089,0.42939 -1.2831133,0.64409 -0.058598,0.14353 -0.2669566,0.30728 -0.1757738,0.43024 0.293491,0.39554 2.4520961,1.10029 2.6578235,1.17967 3.5238657,1.35979 6.9923797,2.87257 10.2887617,4.78375 1.637347,0.99442 3.310259,1.92589 4.912042,2.98327 8.749752,5.77575 16.658174,13.03582 22.898943,21.74827 0.670597,1.03715 1.3582,2.06221 2.011791,3.11142 0.398746,0.64015 1.203779,1.19125 1.144443,1.95546 -0.04248,0.54737 -0.859884,0.6526 -1.358668,0.80364 -0.124676,0.0376 0.06182,-0.27121 0.05235,-0.40813 -0.05874,-0.84761 -0.502516,-3.68023 -0.573251,-4.15738 -1.501218,-9.78182 -3.252381,-19.51594 -4.905301,-29.26972 -1.062427,-6.48856 -2.085284,-12.98425 -3.151074,-19.47223 0,0 1.59248,-0.0319 1.59248,-0.0319 z"
       inkscape:connector-curvature="0" />
  </g>
</svg>
